<?xml version="1.0" standalone="no"?><!DOCTYPE svg PUBLIC "-//W3C//DTD SVG 1.1//EN" "http://www.w3.org/Graphics/SVG/1.1/DTD/svg11.dtd"><svg t="1766028682351" class="icon" viewBox="0 0 1024 1024" version="1.1" xmlns="http://www.w3.org/2000/svg" p-id="2622" xmlns:xlink="http://www.w3.org/1999/xlink" width="200" height="200"><path d="M165.122295 553.900907h-90.891339V249.514903L520.789192 0l116.731747 72.631269-48.017894 77.166746-71.195186-44.291349-353.185564 197.334185v251.060056zM834.882392 839.490582l-46.009196-78.38469 73.612895-43.209742V310.103069L650.482044 181.382755l47.163515-77.693916 255.731871 155.269674v510.972928l-118.495038 69.559141zM508.400703 1024L70.62257 763.187304l2.572225-141.208784 90.87316 1.654222-1.608776 88.473629 347.341251 206.923222 219.311711-122.88509 44.427686 79.293604-265.139124 148.561893z" p-id="2623"></path><path d="M623.578207 669.578314h-69.168308L526.89709 598.065009H401.058032L375.108555 669.578314h-67.441374l122.603327-314.883954h67.259591zM506.519252 544.993556l-43.391525-116.840816-42.528057 116.840816zM655.362909 669.578314V354.69436h63.578491v314.883954z" p-id="2624"></path></svg>